<svg width="750" height="165" viewBox="0 0 750 165" fill="none" xmlns="http://www.w3.org/2000/svg">
<g clip-path="url(#clip0_3_21)">
<path d="M63.0109 10.3022C-3.4855 53.6048 -36.8786 164.835 63.0109 164.835C162.901 164.835 129.507 53.6048 63.0109 10.3022Z" fill="#6304FF"/>
<path d="M63.0109 10.3022C-3.4855 53.6048 -36.8786 164.835 63.0109 164.835C162.901 164.835 129.507 53.6048 63.0109 10.3022Z" fill="#6304FF"/>
<path d="M63.011 154.533C10.4698 154.533 47.5577 88.5989 63.011 80.3571C78.4643 88.5989 115.552 154.533 63.011 154.533Z" fill="#1F0150"/>
<path d="M162.569 135.989V32.1429H204.107C211.51 32.1429 217.496 33.6332 222.064 36.614C226.632 39.5466 229.972 43.2486 232.088 47.7198C234.204 52.1909 235.261 56.7101 235.261 61.2775C235.261 67.0947 233.938 71.9265 231.295 75.7727C228.699 79.6189 225.117 82.1909 220.549 83.489V79.8833C227.04 81.2293 231.896 84.2343 235.117 88.8977C238.387 93.5611 240.021 98.7775 240.021 104.547C240.021 110.749 238.867 116.205 236.559 120.917C234.299 125.629 230.837 129.33 226.174 132.023C221.512 134.667 215.646 135.989 208.578 135.989H162.569ZM182.473 117.527H206.559C209.203 117.527 211.56 116.975 213.626 115.869C215.693 114.715 217.304 113.128 218.458 111.109C219.659 109.042 220.261 106.614 220.261 103.826C220.261 101.374 219.756 99.1861 218.747 97.2631C217.737 95.34 216.198 93.8256 214.131 92.7198C212.112 91.5659 209.588 90.989 206.559 90.989H182.473V117.527ZM182.473 72.6717H203.819C206.03 72.6717 208.001 72.287 209.732 71.5179C211.463 70.7487 212.833 69.5707 213.843 67.9842C214.852 66.3497 215.357 64.2583 215.357 61.7102C215.357 58.5371 214.372 55.8688 212.4 53.7054C210.429 51.5419 207.569 50.4602 203.819 50.4602H182.473V72.6717ZM254.403 135.989V58.1044H271.71V77.1429L269.835 74.6909C270.845 71.9986 272.192 69.5466 273.874 67.3352C275.557 65.1237 277.624 63.2967 280.076 61.8544C281.951 60.7006 283.995 59.8111 286.205 59.1861C288.418 58.513 290.701 58.1044 293.056 57.9602C295.413 57.7679 297.769 57.8159 300.124 58.1044V76.4217C297.96 75.7486 295.436 75.5322 292.552 75.7727C289.716 75.9649 287.143 76.614 284.835 77.7198C282.528 78.7774 280.58 80.1958 278.994 81.9746C277.407 83.7054 276.206 85.7726 275.388 88.1765C274.572 90.5322 274.162 93.2005 274.162 96.1813V135.989H254.403ZM348.635 138.152C340.655 138.152 333.612 136.446 327.505 133.032C321.447 129.571 316.688 124.835 313.226 118.826C309.814 112.768 308.106 105.845 308.106 98.0563C308.106 89.5467 309.789 82.1429 313.154 75.8448C316.521 69.5466 321.159 64.6669 327.072 61.2054C332.986 57.6958 339.789 55.9409 347.481 55.9409C355.655 55.9409 362.602 57.8639 368.322 61.7102C374.044 65.5564 378.274 70.965 381.014 77.9361C383.755 84.9072 384.717 93.1045 383.899 102.527H364.5V95.3159C364.5 87.3832 363.227 81.6861 360.678 78.2246C358.179 74.715 354.068 72.9602 348.346 72.9602C341.664 72.9602 336.736 75.0035 333.563 79.09C330.439 83.1284 328.875 89.114 328.875 97.0467C328.875 104.306 330.439 109.931 333.563 113.922C336.736 117.864 341.376 119.835 347.481 119.835C351.328 119.835 354.62 118.994 357.361 117.311C360.101 115.628 362.192 113.201 363.635 110.027L383.25 115.652C380.318 122.768 375.678 128.297 369.332 132.239C363.035 136.181 356.135 138.152 348.635 138.152ZM322.817 102.527V87.9602H374.452V102.527H322.817ZM401.625 135.989V29.9794H421.24V135.989H401.625ZM444.303 135.989V29.9794H463.918V135.989H444.303ZM486.981 47.2871V29.9794H506.596V47.2871H486.981ZM486.981 135.989V58.1044H506.596V135.989H486.981ZM557.207 138.297C551.102 138.297 546.126 137.263 542.279 135.196C538.432 133.129 535.428 130.508 533.264 127.335C531.148 124.162 529.634 120.869 528.721 117.455C527.808 113.994 527.254 110.845 527.063 108.008C526.871 105.172 526.774 103.104 526.774 101.806V58.1044H546.678V94.8832C546.678 96.662 546.775 98.9458 546.966 101.734C547.158 104.475 547.76 107.239 548.769 110.027C549.779 112.816 551.413 115.148 553.673 117.023C555.981 118.898 559.226 119.835 563.409 119.835C565.092 119.835 566.895 119.571 568.817 119.042C570.74 118.513 572.543 117.503 574.226 116.013C575.909 114.475 577.28 112.239 578.337 109.306C579.443 106.325 579.995 102.431 579.995 97.6236L591.245 102.96C591.245 109.114 589.995 114.883 587.495 120.268C584.996 125.652 581.221 130.003 576.173 133.321C571.172 136.638 564.851 138.297 557.207 138.297ZM582.447 135.989V110.172H579.995V58.1044H599.755V135.989H582.447ZM713.66 135.989V89.9794C713.66 84.8351 712.434 80.8449 709.982 78.0083C707.578 75.1236 704.238 73.6813 699.958 73.6813C697.218 73.6813 694.838 74.3304 692.819 75.6284C690.799 76.8785 689.213 78.6573 688.059 80.965C686.953 83.2247 686.4 85.8447 686.4 88.8256L678.179 83.3448C678.179 78.0083 679.43 73.2966 681.929 69.2102C684.478 65.1237 687.868 61.9506 692.098 59.6909C696.377 57.3832 701.112 56.2294 706.304 56.2294C715.199 56.2294 721.906 58.8736 726.425 64.1621C730.993 69.4024 733.275 76.2775 733.275 84.7871V135.989H713.66ZM619.766 135.989V58.1044H637.074V83.9217H639.525V135.989H619.766ZM666.785 135.989V89.9794C666.785 84.8351 665.559 80.8449 663.107 78.0083C660.703 75.1236 657.363 73.6813 653.083 73.6813C648.997 73.6813 645.703 75.0995 643.203 77.9361C640.751 80.7245 639.525 84.3544 639.525 88.8256L631.304 83.0563C631.304 77.9602 632.578 73.3929 635.126 69.3544C637.675 65.3159 641.087 62.1188 645.367 59.7631C649.694 57.4074 654.525 56.2294 659.862 56.2294C665.967 56.2294 670.968 57.5275 674.862 60.1236C678.804 62.7198 681.713 66.1813 683.588 70.5083C685.463 74.8352 686.4 79.5948 686.4 84.7871V135.989H666.785Z" fill="black"/>
</g>
<defs>
<clipPath id="clip0_3_21">
<rect width="750" height="164.835" fill="white"/>
</clipPath>
</defs>
</svg>
