<svg width="750" height="165" viewBox="0 0 750 165" fill="none" xmlns="http://www.w3.org/2000/svg">
<g clip-path="url(#clip0_3_16)">
<path d="M63.0109 10.3022C-3.4855 53.6049 -36.8786 164.835 63.0109 164.835C162.901 164.835 129.507 53.6049 63.0109 10.3022Z" fill="#6304FF"/>
<path d="M63.0109 154.533C10.4698 154.533 47.5576 88.5989 63.0109 80.3572C78.4642 88.5989 115.552 154.533 63.0109 154.533Z" fill="#1F0150"/>
<path d="M162.569 135.989V32.143H204.107C211.51 32.143 217.496 33.6333 222.064 36.6141C226.632 39.5467 229.972 43.2487 232.088 47.7199C234.204 52.191 235.261 56.7102 235.261 61.2776C235.261 67.0948 233.938 71.9265 231.295 75.7728C228.699 79.619 225.117 82.191 220.549 83.4891V79.8833C227.04 81.2294 231.896 84.2344 235.117 88.8978C238.387 93.5612 240.021 98.7776 240.021 104.547C240.021 110.749 238.867 116.205 236.559 120.917C234.299 125.629 230.837 129.33 226.174 132.023C221.512 134.667 215.646 135.989 208.578 135.989H162.569ZM182.473 117.528H206.559C209.203 117.528 211.56 116.975 213.626 115.869C215.693 114.715 217.304 113.129 218.458 111.109C219.659 109.042 220.261 106.614 220.261 103.826C220.261 101.374 219.756 99.1862 218.747 97.2632C217.737 95.3401 216.198 93.8257 214.131 92.7199C212.112 91.566 209.588 90.9891 206.559 90.9891H182.473V117.528ZM182.473 72.6718H203.819C206.03 72.6718 208.001 72.2871 209.732 71.518C211.463 70.7488 212.833 69.5708 213.843 67.9843C214.852 66.3498 215.357 64.2584 215.357 61.7103C215.357 58.5372 214.372 55.8689 212.4 53.7055C210.429 51.542 207.569 50.4603 203.819 50.4603H182.473V72.6718ZM254.403 135.989V58.1045H271.71V77.143L269.835 74.691C270.845 71.9987 272.192 69.5467 273.874 67.3353C275.557 65.1238 277.624 63.2968 280.076 61.8545C281.951 60.7006 283.995 59.8112 286.205 59.1862C288.418 58.5131 290.701 58.1045 293.056 57.9603C295.413 57.768 297.769 57.816 300.124 58.1045V76.4218C297.96 75.7487 295.436 75.5323 292.552 75.7728C289.716 75.965 287.143 76.614 284.835 77.7199C282.528 78.7775 280.58 80.1959 278.994 81.9747C277.407 83.7055 276.206 85.7727 275.388 88.1766C274.572 90.5323 274.162 93.2006 274.162 96.1814V135.989H254.403ZM348.635 138.153C340.655 138.153 333.612 136.446 327.505 133.032C321.447 129.571 316.688 124.835 313.226 118.826C309.814 112.768 308.106 105.845 308.106 98.0564C308.106 89.5468 309.789 82.143 313.154 75.8449C316.521 69.5467 321.159 64.667 327.072 61.2055C332.986 57.6959 339.789 55.941 347.481 55.941C355.655 55.941 362.602 57.864 368.322 61.7103C374.044 65.5565 378.274 70.9651 381.014 77.9362C383.755 84.9073 384.717 93.1046 383.899 102.528H364.5V95.316C364.5 87.3833 363.227 81.6862 360.678 78.2247C358.179 74.7151 354.068 72.9603 348.346 72.9603C341.664 72.9603 336.736 75.0036 333.563 79.0901C330.439 83.1285 328.875 89.1141 328.875 97.0468C328.875 104.306 330.439 109.931 333.563 113.922C336.736 117.864 341.376 119.835 347.481 119.835C351.328 119.835 354.62 118.994 357.361 117.311C360.101 115.628 362.192 113.201 363.635 110.028L383.25 115.653C380.318 122.768 375.678 128.297 369.332 132.239C363.035 136.181 356.135 138.153 348.635 138.153ZM322.817 102.528V87.9603H374.452V102.528H322.817ZM401.625 135.989V29.9795H421.24V135.989H401.625ZM444.303 135.989V29.9795H463.918V135.989H444.303ZM486.981 47.2872V29.9795H506.596V47.2872H486.981ZM486.981 135.989V58.1045H506.596V135.989H486.981ZM557.207 138.297C551.102 138.297 546.126 137.263 542.279 135.196C538.432 133.129 535.428 130.508 533.264 127.335C531.148 124.162 529.634 120.869 528.721 117.455C527.808 113.994 527.254 110.845 527.063 108.008C526.871 105.172 526.774 103.104 526.774 101.806V58.1045H546.678V94.8833C546.678 96.6621 546.775 98.9459 546.966 101.734C547.158 104.475 547.76 107.239 548.769 110.028C549.779 112.816 551.413 115.148 553.673 117.023C555.981 118.898 559.226 119.835 563.409 119.835C565.092 119.835 566.895 119.571 568.817 119.042C570.74 118.513 572.543 117.503 574.226 116.013C575.909 114.475 577.28 112.239 578.337 109.306C579.443 106.326 579.995 102.431 579.995 97.6237L591.245 102.96C591.245 109.114 589.995 114.883 587.495 120.268C584.996 125.653 581.221 130.004 576.173 133.321C571.172 136.638 564.851 138.297 557.207 138.297ZM582.447 135.989V110.172H579.995V58.1045H599.755V135.989H582.447ZM713.66 135.989V89.9795C713.66 84.8352 712.434 80.8449 709.982 78.0083C707.578 75.1237 704.238 73.6814 699.958 73.6814C697.218 73.6814 694.838 74.3305 692.819 75.6285C690.799 76.8786 689.213 78.6574 688.059 80.9651C686.953 83.2248 686.4 85.8448 686.4 88.8256L678.179 83.3449C678.179 78.0083 679.43 73.2967 681.929 69.2103C684.478 65.1238 687.868 61.9507 692.098 59.691C696.377 57.3833 701.112 56.2295 706.304 56.2295C715.199 56.2295 721.906 58.8737 726.425 64.1622C730.993 69.4025 733.275 76.2776 733.275 84.7872V135.989H713.66ZM619.766 135.989V58.1045H637.074V83.9218H639.525V135.989H619.766ZM666.785 135.989V89.9795C666.785 84.8352 665.559 80.8449 663.107 78.0083C660.703 75.1237 657.363 73.6814 653.083 73.6814C648.997 73.6814 645.703 75.0996 643.203 77.9362C640.751 80.7246 639.525 84.3545 639.525 88.8256L631.304 83.0564C631.304 77.9603 632.578 73.393 635.126 69.3545C637.675 65.316 641.087 62.1188 645.367 59.7631C649.694 57.4074 654.525 56.2295 659.862 56.2295C665.967 56.2295 670.968 57.5276 674.862 60.1237C678.804 62.7199 681.713 66.1814 683.588 70.5083C685.463 74.8353 686.4 79.5949 686.4 84.7872V135.989H666.785Z" fill="white"/>
</g>
<defs>
<clipPath id="clip0_3_16">
<rect width="750" height="164.835" fill="white"/>
</clipPath>
</defs>
</svg>
